<mxfile host="app.diagrams.net" agent="Mozilla/5.0 (X11; Linux x86_64; rv:130.0) Gecko/20100101 Firefox/130.0" version="24.7.14">
  <diagram name="Page-1" id="2fm7KJkXDYSFjZ5mcsMK">
    <mxGraphModel dx="1164" dy="759" grid="1" gridSize="10" guides="1" tooltips="1" connect="1" arrows="1" fold="1" page="1" pageScale="1" pageWidth="850" pageHeight="1100" math="0" shadow="0">
      <root>
        <mxCell id="0" />
        <mxCell id="1" parent="0" />
        <mxCell id="-fhmdInxY5s90_-VyyIb-1" value="" style="rounded=0;whiteSpace=wrap;html=1;" parent="1" vertex="1">
          <mxGeometry x="160" y="120" width="500" height="60" as="geometry" />
        </mxCell>
        <mxCell id="-fhmdInxY5s90_-VyyIb-3" value="*név* portfóliója" style="text;html=1;align=center;verticalAlign=middle;whiteSpace=wrap;rounded=0;" parent="1" vertex="1">
          <mxGeometry x="160" y="120" width="140" height="60" as="geometry" />
        </mxCell>
        <mxCell id="-fhmdInxY5s90_-VyyIb-4" value="név, név, név" style="text;html=1;align=center;verticalAlign=middle;whiteSpace=wrap;rounded=0;fontSize=14;" parent="1" vertex="1">
          <mxGeometry x="430" y="150" width="190" height="30" as="geometry" />
        </mxCell>
        <mxCell id="-fhmdInxY5s90_-VyyIb-5" value="" style="rounded=0;whiteSpace=wrap;html=1;" parent="1" vertex="1">
          <mxGeometry x="160" y="180" width="500" height="200" as="geometry" />
        </mxCell>
        <mxCell id="-fhmdInxY5s90_-VyyIb-8" value="arckép" style="shape=image;html=1;verticalAlign=top;verticalLabelPosition=bottom;labelBackgroundColor=#ffffff;imageAspect=0;aspect=fixed;image=https://cdn4.iconfinder.com/data/icons/evil-icons-user-interface/64/picture-128.png" parent="1" vertex="1">
          <mxGeometry x="510" y="210" width="74" height="74" as="geometry" />
        </mxCell>
        <mxCell id="-fhmdInxY5s90_-VyyIb-9" value="&lt;h1 style=&quot;margin-top: 0px;&quot;&gt;Bemutatkozás&lt;br&gt;&lt;/h1&gt;&lt;p&gt;&lt;b&gt;Rövid bemutatkozás.&lt;/b&gt; Lorem ipsum dolor sit amet, consectetur adipisicing elit,&lt;br&gt;&lt;/p&gt;" style="text;html=1;whiteSpace=wrap;overflow=hidden;rounded=0;" parent="1" vertex="1">
          <mxGeometry x="180" y="200" width="180" height="120" as="geometry" />
        </mxCell>
        <mxCell id="-fhmdInxY5s90_-VyyIb-10" value="&lt;div&gt;profilkép&lt;/div&gt;" style="shape=image;html=1;verticalAlign=top;verticalLabelPosition=bottom;labelBackgroundColor=#ffffff;imageAspect=0;aspect=fixed;image=https://cdn1.iconfinder.com/data/icons/social-media-outline-6/128/SocialMedia_Instagram-Outline-128.png" parent="1" vertex="1">
          <mxGeometry x="170" y="10" width="60" height="60" as="geometry" />
        </mxCell>
        <mxCell id="-fhmdInxY5s90_-VyyIb-11" value="" style="rounded=0;whiteSpace=wrap;html=1;" parent="1" vertex="1">
          <mxGeometry x="160" y="380" width="500" height="240" as="geometry" />
        </mxCell>
        <mxCell id="-fhmdInxY5s90_-VyyIb-12" value="&lt;p style=&quot;font-size: 16px;&quot;&gt;&lt;font style=&quot;font-size: 16px;&quot;&gt;Valami szöveg az eddigi munkásságodról, karrieredről, tanulmányaidról&lt;br&gt;&lt;/font&gt;&lt;/p&gt;" style="text;html=1;whiteSpace=wrap;overflow=hidden;rounded=0;" parent="1" vertex="1">
          <mxGeometry x="440" y="410" width="180" height="160" as="geometry" />
        </mxCell>
        <mxCell id="-fhmdInxY5s90_-VyyIb-13" value="kép a munkásságodról" style="shape=image;html=1;verticalAlign=top;verticalLabelPosition=bottom;labelBackgroundColor=#ffffff;imageAspect=0;aspect=fixed;image=https://cdn4.iconfinder.com/data/icons/evil-icons-user-interface/64/picture-128.png" parent="1" vertex="1">
          <mxGeometry x="260" y="410" width="128" height="128" as="geometry" />
        </mxCell>
        <mxCell id="-fhmdInxY5s90_-VyyIb-14" value="" style="rounded=0;whiteSpace=wrap;html=1;" parent="1" vertex="1">
          <mxGeometry x="160" y="620" width="500" height="230" as="geometry" />
        </mxCell>
        <mxCell id="-fhmdInxY5s90_-VyyIb-15" value="Skills" style="text;html=1;align=center;verticalAlign=middle;whiteSpace=wrap;rounded=0;fontSize=20;" parent="1" vertex="1">
          <mxGeometry x="340" y="630" width="140" height="30" as="geometry" />
        </mxCell>
        <mxCell id="-fhmdInxY5s90_-VyyIb-16" value="" style="verticalLabelPosition=bottom;verticalAlign=top;html=1;shape=mxgraph.basic.star" parent="1" vertex="1">
          <mxGeometry x="200" y="670" width="42.11" height="40" as="geometry" />
        </mxCell>
        <mxCell id="-fhmdInxY5s90_-VyyIb-17" value="" style="verticalLabelPosition=bottom;verticalAlign=top;html=1;shape=mxgraph.basic.star" parent="1" vertex="1">
          <mxGeometry x="200" y="715" width="42.11" height="40" as="geometry" />
        </mxCell>
        <mxCell id="-fhmdInxY5s90_-VyyIb-18" value="" style="verticalLabelPosition=bottom;verticalAlign=top;html=1;shape=mxgraph.basic.star" parent="1" vertex="1">
          <mxGeometry x="200" y="760" width="42.11" height="40" as="geometry" />
        </mxCell>
        <mxCell id="-fhmdInxY5s90_-VyyIb-19" value="" style="verticalLabelPosition=bottom;verticalAlign=top;html=1;shape=mxgraph.basic.star" parent="1" vertex="1">
          <mxGeometry x="467.89" y="660" width="42.11" height="40" as="geometry" />
        </mxCell>
        <mxCell id="-fhmdInxY5s90_-VyyIb-20" value="" style="verticalLabelPosition=bottom;verticalAlign=top;html=1;shape=mxgraph.basic.star" parent="1" vertex="1">
          <mxGeometry x="467.89" y="710" width="42.11" height="40" as="geometry" />
        </mxCell>
        <mxCell id="-fhmdInxY5s90_-VyyIb-21" value="" style="verticalLabelPosition=bottom;verticalAlign=top;html=1;shape=mxgraph.basic.star" parent="1" vertex="1">
          <mxGeometry x="467.89" y="760" width="42.11" height="40" as="geometry" />
        </mxCell>
        <mxCell id="-fhmdInxY5s90_-VyyIb-24" value="" style="rounded=0;whiteSpace=wrap;html=1;" parent="1" vertex="1">
          <mxGeometry x="161" y="850" width="499" height="110" as="geometry" />
        </mxCell>
        <mxCell id="-fhmdInxY5s90_-VyyIb-25" value="&lt;font style=&quot;font-size: 16px;&quot;&gt;Contact me&lt;br&gt;&lt;/font&gt;" style="text;html=1;align=center;verticalAlign=middle;whiteSpace=wrap;rounded=0;" parent="1" vertex="1">
          <mxGeometry x="191" y="870" width="89" height="30" as="geometry" />
        </mxCell>
        <mxCell id="-fhmdInxY5s90_-VyyIb-33" value="" style="html=1;shadow=0;dashed=0;align=center;verticalAlign=middle;shape=mxgraph.arrows2.arrow;dy=0;dx=30;notch=30;rotation=-90;" parent="1" vertex="1">
          <mxGeometry x="570" y="875" width="60" height="60" as="geometry" />
        </mxCell>
        <mxCell id="bDYwQql_BcYnzFzaNHes-1" value="" style="shape=image;html=1;verticalAlign=top;verticalLabelPosition=bottom;labelBackgroundColor=#ffffff;imageAspect=0;aspect=fixed;image=https://cdn2.iconfinder.com/data/icons/user-interface-ui-1-set/64/link-chain-hyperlink-linked-internet-128.png" vertex="1" parent="1">
          <mxGeometry x="290" y="865" width="35" height="35" as="geometry" />
        </mxCell>
        <mxCell id="bDYwQql_BcYnzFzaNHes-2" value="" style="shape=image;html=1;verticalAlign=top;verticalLabelPosition=bottom;labelBackgroundColor=#ffffff;imageAspect=0;aspect=fixed;image=https://cdn2.iconfinder.com/data/icons/user-interface-ui-1-set/64/link-chain-hyperlink-linked-internet-128.png" vertex="1" parent="1">
          <mxGeometry x="290" y="910" width="35" height="35" as="geometry" />
        </mxCell>
        <mxCell id="bDYwQql_BcYnzFzaNHes-3" value="" style="shape=image;html=1;verticalAlign=top;verticalLabelPosition=bottom;labelBackgroundColor=#ffffff;imageAspect=0;aspect=fixed;image=https://cdn2.iconfinder.com/data/icons/user-interface-ui-1-set/64/link-chain-hyperlink-linked-internet-128.png" vertex="1" parent="1">
          <mxGeometry x="325" y="910" width="35" height="35" as="geometry" />
        </mxCell>
        <mxCell id="bDYwQql_BcYnzFzaNHes-4" value="" style="shape=image;html=1;verticalAlign=top;verticalLabelPosition=bottom;labelBackgroundColor=#ffffff;imageAspect=0;aspect=fixed;image=https://cdn2.iconfinder.com/data/icons/user-interface-ui-1-set/64/link-chain-hyperlink-linked-internet-128.png" vertex="1" parent="1">
          <mxGeometry x="325" y="865" width="35" height="35" as="geometry" />
        </mxCell>
      </root>
    </mxGraphModel>
  </diagram>
</mxfile>
